<?xml version="1.0" standalone="no"?>
<!DOCTYPE svg PUBLIC "-//W3C//DTD SVG 1.1//EN" "http://www.w3.org/Graphics/SVG/1.1/DTD/svg11.dtd">
<svg width="153" height="274" viewBox="0 -274 153 274" xmlns="http://www.w3.org/2000/svg" version="1.1">
<title>OpenSCAD Model</title>
<path d="
M 140.223,-0.0650024 L 141.534,-0.259399 L 142.819,-0.581299 L 144.066,-1.02763 L 145.264,-1.59407 L 146.4,-2.27516
 L 147.464,-3.06436 L 148.446,-3.95406 L 149.336,-4.93568 L 150.125,-5.9998 L 150.806,-7.13614 L 151.372,-8.33377
 L 151.819,-9.58116 L 152.141,-10.8663 L 152.335,-12.1768 L 152.4,-13.5 L 152.4,-103.836 L 152.335,-105.16
 L 152.141,-106.47 L 151.819,-107.755 L 151.237,-109.317 L 82.0625,-265.031 L 81.4659,-266.214 L 80.7562,-267.332
 L 79.9402,-268.376 L 79.0259,-269.335 L 78.0221,-270.199 L 76.9383,-270.961 L 75.785,-271.613 L 74.5734,-272.149
 L 73.3151,-272.564 L 72.0223,-272.853 L 70.7073,-273.014 L 69.7251,-273.05 L 13.5,-273.05 L 12.1768,-272.985
 L 10.8663,-272.791 L 9.58116,-272.469 L 8.33377,-272.022 L 7.13614,-271.456 L 5.9998,-270.775 L 4.93568,-269.986
 L 3.95406,-269.096 L 3.06436,-268.114 L 2.27516,-267.05 L 1.59407,-265.914 L 1.02763,-264.716 L 0.581299,-263.469
 L 0.259399,-262.184 L 0.0650024,-260.873 L 0,-259.55 L 0,-13.5 L 0.0650024,-12.1768 L 0.259399,-10.8663
 L 0.581299,-9.58116 L 1.02763,-8.33377 L 1.59407,-7.13614 L 2.27516,-5.9998 L 3.06436,-4.93568 L 3.95406,-3.95406
 L 4.93568,-3.06436 L 5.9998,-2.27516 L 7.13614,-1.59407 L 8.33377,-1.02763 L 9.58116,-0.581299 L 10.8663,-0.259399
 L 12.1768,-0.0650024 L 13.5,-0 L 138.9,-0 z
M 54.8505,-261.532 L 54.7025,-261.554 L 54.5573,-261.591 L 54.4164,-261.641 L 54.2811,-261.705 L 54.1527,-261.782
 L 54.0325,-261.871 L 53.9217,-261.972 L 53.8212,-262.083 L 53.732,-262.203 L 53.6551,-262.331 L 53.5911,-262.466
 L 53.5407,-262.607 L 53.5043,-262.752 L 53.4823,-262.901 L 53.475,-263.05 L 53.4823,-263.199 L 53.5043,-263.348
 L 53.5407,-263.493 L 53.5911,-263.634 L 53.6551,-263.769 L 53.732,-263.897 L 53.8212,-264.017 L 53.9217,-264.128
 L 54.0325,-264.229 L 54.1527,-264.318 L 54.2811,-264.395 L 54.4164,-264.459 L 54.5573,-264.509 L 54.7025,-264.546
 L 54.8505,-264.568 L 55,-264.575 L 55.1495,-264.568 L 55.2975,-264.546 L 55.4427,-264.509 L 55.5836,-264.459
 L 55.7189,-264.395 L 55.8472,-264.318 L 55.9674,-264.229 L 56.0783,-264.128 L 56.1788,-264.017 L 56.268,-263.897
 L 56.3449,-263.769 L 56.4089,-263.634 L 56.4593,-263.493 L 56.4957,-263.348 L 56.5177,-263.199 L 56.525,-263.05
 L 56.5177,-262.901 L 56.4957,-262.752 L 56.4593,-262.607 L 56.4089,-262.466 L 56.3449,-262.331 L 56.268,-262.203
 L 56.1788,-262.083 L 56.0783,-261.972 L 55.9674,-261.871 L 55.8472,-261.782 L 55.7189,-261.705 L 55.5836,-261.641
 L 55.4427,-261.591 L 55.2975,-261.554 L 55.1495,-261.532 L 55,-261.525 z
M 34.8505,-261.532 L 34.7025,-261.554 L 34.5573,-261.591 L 34.4164,-261.641 L 34.2811,-261.705 L 34.1527,-261.782
 L 34.0325,-261.871 L 33.9217,-261.972 L 33.8212,-262.083 L 33.732,-262.203 L 33.6551,-262.331 L 33.5911,-262.466
 L 33.5407,-262.607 L 33.5043,-262.752 L 33.4823,-262.901 L 33.475,-263.05 L 33.4823,-263.199 L 33.5043,-263.348
 L 33.5407,-263.493 L 33.5911,-263.634 L 33.6551,-263.769 L 33.732,-263.897 L 33.8212,-264.017 L 33.9217,-264.128
 L 34.0325,-264.229 L 34.1527,-264.318 L 34.2811,-264.395 L 34.4164,-264.459 L 34.5573,-264.509 L 34.7025,-264.546
 L 34.8505,-264.568 L 35,-264.575 L 35.1495,-264.568 L 35.2975,-264.546 L 35.4427,-264.509 L 35.5836,-264.459
 L 35.7189,-264.395 L 35.8472,-264.318 L 35.9674,-264.229 L 36.0783,-264.128 L 36.1788,-264.017 L 36.268,-263.897
 L 36.3449,-263.769 L 36.4089,-263.634 L 36.4593,-263.493 L 36.4957,-263.348 L 36.5177,-263.199 L 36.525,-263.05
 L 36.5177,-262.901 L 36.4957,-262.752 L 36.4593,-262.607 L 36.4089,-262.466 L 36.3449,-262.331 L 36.268,-262.203
 L 36.1788,-262.083 L 36.0783,-261.972 L 35.9674,-261.871 L 35.8472,-261.782 L 35.7189,-261.705 L 35.5836,-261.641
 L 35.4427,-261.591 L 35.2975,-261.554 L 35.1495,-261.532 L 35,-261.525 z
M 29,-252.55 L 28.853,-252.557 L 28.7074,-252.579 L 28.5646,-252.615 L 28.426,-252.664 L 28.2929,-252.727
 L 28.1666,-252.803 L 28.0484,-252.89 L 27.9393,-252.989 L 27.8405,-253.098 L 27.7528,-253.217 L 27.6771,-253.343
 L 27.6142,-253.476 L 27.5646,-253.615 L 27.5288,-253.757 L 27.5072,-253.903 L 27.5,-254.05 L 27.5072,-254.197
 L 27.5288,-254.343 L 27.5646,-254.485 L 27.6142,-254.624 L 27.6771,-254.757 L 27.7528,-254.883 L 27.8405,-255.002
 L 27.9393,-255.111 L 28.0484,-255.21 L 28.1666,-255.297 L 28.2929,-255.373 L 28.426,-255.436 L 28.5646,-255.485
 L 28.7074,-255.521 L 28.853,-255.543 L 29,-255.55 L 39,-255.55 L 39.147,-255.543 L 39.2926,-255.521
 L 39.4354,-255.485 L 39.574,-255.436 L 39.7071,-255.373 L 39.8333,-255.297 L 39.9516,-255.21 L 40.0607,-255.111
 L 40.1595,-255.002 L 40.2472,-254.883 L 40.3229,-254.757 L 40.3858,-254.624 L 40.4354,-254.485 L 40.4712,-254.343
 L 40.4928,-254.197 L 40.5,-254.05 L 40.4928,-253.903 L 40.4712,-253.757 L 40.4354,-253.615 L 40.3858,-253.476
 L 40.3229,-253.343 L 40.2472,-253.217 L 40.1595,-253.098 L 40.0607,-252.989 L 39.9516,-252.89 L 39.8333,-252.803
 L 39.7071,-252.727 L 39.574,-252.664 L 39.4354,-252.615 L 39.2926,-252.579 L 39.147,-252.557 L 39,-252.55
 z
M 79.7549,-240.562 L 79.5123,-240.598 L 79.2743,-240.658 L 79.0433,-240.74 L 78.8215,-240.845 L 78.6111,-240.971
 L 78.414,-241.117 L 78.2322,-241.282 L 78.0675,-241.464 L 77.9213,-241.661 L 77.7952,-241.872 L 77.6903,-242.093
 L 77.6076,-242.324 L 77.548,-242.562 L 77.512,-242.805 L 77.5,-243.05 L 77.512,-243.295 L 77.548,-243.538
 L 77.6076,-243.776 L 77.6903,-244.007 L 77.7952,-244.228 L 77.9213,-244.439 L 78.0675,-244.636 L 78.2322,-244.818
 L 78.414,-244.983 L 78.6111,-245.129 L 78.8215,-245.255 L 79.0433,-245.36 L 79.2743,-245.442 L 79.5123,-245.502
 L 79.7549,-245.538 L 80,-245.55 L 80.245,-245.538 L 80.4877,-245.502 L 80.7257,-245.442 L 80.9567,-245.36
 L 81.1785,-245.255 L 81.3889,-245.129 L 81.586,-244.983 L 81.7678,-244.818 L 81.9325,-244.636 L 82.0787,-244.439
 L 82.2048,-244.228 L 82.3097,-244.007 L 82.3923,-243.776 L 82.452,-243.538 L 82.488,-243.295 L 82.5,-243.05
 L 82.488,-242.805 L 82.452,-242.562 L 82.3923,-242.324 L 82.3097,-242.093 L 82.2048,-241.872 L 82.0787,-241.661
 L 81.9325,-241.464 L 81.7678,-241.282 L 81.586,-241.117 L 81.3889,-240.971 L 81.1785,-240.845 L 80.9567,-240.74
 L 80.7257,-240.658 L 80.4877,-240.598 L 80.245,-240.562 L 80,-240.55 z
M 9.75494,-240.562 L 9.51227,-240.598 L 9.27428,-240.658 L 9.04329,-240.74 L 8.8215,-240.845 L 8.61107,-240.971
 L 8.41402,-241.117 L 8.23222,-241.282 L 8.06746,-241.464 L 7.92133,-241.661 L 7.7952,-241.872 L 7.69029,-242.093
 L 7.60764,-242.324 L 7.54803,-242.562 L 7.51202,-242.805 L 7.5,-243.05 L 7.51202,-243.295 L 7.54803,-243.538
 L 7.60764,-243.776 L 7.69029,-244.007 L 7.7952,-244.228 L 7.92133,-244.439 L 8.06746,-244.636 L 8.23222,-244.818
 L 8.41402,-244.983 L 8.61107,-245.129 L 8.8215,-245.255 L 9.04329,-245.36 L 9.27428,-245.442 L 9.51227,-245.502
 L 9.75494,-245.538 L 10,-245.55 L 10.245,-245.538 L 10.4877,-245.502 L 10.7257,-245.442 L 10.9567,-245.36
 L 11.1785,-245.255 L 11.3889,-245.129 L 11.586,-244.983 L 11.7678,-244.818 L 11.9325,-244.636 L 12.0787,-244.439
 L 12.2048,-244.228 L 12.3097,-244.007 L 12.3923,-243.776 L 12.452,-243.538 L 12.488,-243.295 L 12.5,-243.05
 L 12.488,-242.805 L 12.452,-242.562 L 12.3923,-242.324 L 12.3097,-242.093 L 12.2048,-241.872 L 12.0787,-241.661
 L 11.9325,-241.464 L 11.7678,-241.282 L 11.586,-241.117 L 11.3889,-240.971 L 11.1785,-240.845 L 10.9567,-240.74
 L 10.7257,-240.658 L 10.4877,-240.598 L 10.245,-240.562 L 10,-240.55 z
M 32.5,-240.55 L 32.2549,-240.562 L 32.0123,-240.598 L 31.7743,-240.658 L 31.5433,-240.74 L 31.3215,-240.845
 L 31.1111,-240.971 L 30.914,-241.117 L 30.7322,-241.282 L 30.5675,-241.464 L 30.4213,-241.661 L 30.2952,-241.872
 L 30.1903,-242.093 L 30.1076,-242.324 L 30.048,-242.562 L 30.012,-242.805 L 30,-243.05 L 30.012,-243.295
 L 30.048,-243.538 L 30.1076,-243.776 L 30.1903,-244.007 L 30.2952,-244.228 L 30.4213,-244.439 L 30.5675,-244.636
 L 30.7322,-244.818 L 30.914,-244.983 L 31.1111,-245.129 L 31.3215,-245.255 L 31.5433,-245.36 L 31.7743,-245.442
 L 32.0123,-245.502 L 32.2549,-245.538 L 32.5,-245.55 L 57.5,-245.55 L 57.745,-245.538 L 57.9877,-245.502
 L 58.2257,-245.442 L 58.4567,-245.36 L 58.6785,-245.255 L 58.8889,-245.129 L 59.086,-244.983 L 59.2678,-244.818
 L 59.4325,-244.636 L 59.5787,-244.439 L 59.7048,-244.228 L 59.8097,-244.007 L 59.8923,-243.776 L 59.952,-243.538
 L 59.988,-243.295 L 60,-243.05 L 59.988,-242.805 L 59.952,-242.562 L 59.8923,-242.324 L 59.8097,-242.093
 L 59.7048,-241.872 L 59.5787,-241.661 L 59.4325,-241.464 L 59.2678,-241.282 L 59.086,-241.117 L 58.8889,-240.971
 L 58.6785,-240.845 L 58.4567,-240.74 L 58.2257,-240.658 L 57.9877,-240.598 L 57.745,-240.562 L 57.5,-240.55
 z
M 29,-231.55 L 28.853,-231.557 L 28.7074,-231.579 L 28.5646,-231.615 L 28.426,-231.664 L 28.2929,-231.727
 L 28.1666,-231.803 L 28.0484,-231.89 L 27.9393,-231.989 L 27.8405,-232.098 L 27.7528,-232.217 L 27.6771,-232.343
 L 27.6142,-232.476 L 27.5646,-232.615 L 27.5288,-232.757 L 27.5072,-232.903 L 27.5,-233.05 L 27.5072,-233.197
 L 27.5288,-233.343 L 27.5646,-233.485 L 27.6142,-233.624 L 27.6771,-233.757 L 27.7528,-233.883 L 27.8405,-234.002
 L 27.9393,-234.111 L 28.0484,-234.21 L 28.1666,-234.297 L 28.2929,-234.373 L 28.426,-234.436 L 28.5646,-234.485
 L 28.7074,-234.521 L 28.853,-234.543 L 29,-234.55 L 41,-234.55 L 41.147,-234.543 L 41.2926,-234.521
 L 41.4354,-234.485 L 41.574,-234.436 L 41.7071,-234.373 L 41.8333,-234.297 L 41.9516,-234.21 L 42.0607,-234.111
 L 42.1595,-234.002 L 42.2472,-233.883 L 42.3229,-233.757 L 42.3858,-233.624 L 42.4354,-233.485 L 42.4712,-233.343
 L 42.4928,-233.197 L 42.5,-233.05 L 42.4928,-232.903 L 42.4712,-232.757 L 42.4354,-232.615 L 42.3858,-232.476
 L 42.3229,-232.343 L 42.2472,-232.217 L 42.1595,-232.098 L 42.0607,-231.989 L 41.9516,-231.89 L 41.8333,-231.803
 L 41.7071,-231.727 L 41.574,-231.664 L 41.4354,-231.615 L 41.2926,-231.579 L 41.147,-231.557 L 41,-231.55
 z
M 79.7549,-220.562 L 79.5123,-220.598 L 79.2743,-220.658 L 79.0433,-220.74 L 78.8215,-220.845 L 78.6111,-220.971
 L 78.414,-221.117 L 78.2322,-221.282 L 78.0675,-221.464 L 77.9213,-221.661 L 77.7952,-221.872 L 77.6903,-222.093
 L 77.6076,-222.324 L 77.548,-222.562 L 77.512,-222.805 L 77.5,-223.05 L 77.512,-223.295 L 77.548,-223.538
 L 77.6076,-223.776 L 77.6903,-224.007 L 77.7952,-224.228 L 77.9213,-224.439 L 78.0675,-224.636 L 78.2322,-224.818
 L 78.414,-224.983 L 78.6111,-225.129 L 78.8215,-225.255 L 79.0433,-225.36 L 79.2743,-225.442 L 79.5123,-225.502
 L 79.7549,-225.538 L 80,-225.55 L 80.245,-225.538 L 80.4877,-225.502 L 80.7257,-225.442 L 80.9567,-225.36
 L 81.1785,-225.255 L 81.3889,-225.129 L 81.586,-224.983 L 81.7678,-224.818 L 81.9325,-224.636 L 82.0787,-224.439
 L 82.2048,-224.228 L 82.3097,-224.007 L 82.3923,-223.776 L 82.452,-223.538 L 82.488,-223.295 L 82.5,-223.05
 L 82.488,-222.805 L 82.452,-222.562 L 82.3923,-222.324 L 82.3097,-222.093 L 82.2048,-221.872 L 82.0787,-221.661
 L 81.9325,-221.464 L 81.7678,-221.282 L 81.586,-221.117 L 81.3889,-220.971 L 81.1785,-220.845 L 80.9567,-220.74
 L 80.7257,-220.658 L 80.4877,-220.598 L 80.245,-220.562 L 80,-220.55 z
M 9.75494,-220.562 L 9.51227,-220.598 L 9.27428,-220.658 L 9.04329,-220.74 L 8.8215,-220.845 L 8.61107,-220.971
 L 8.41402,-221.117 L 8.23222,-221.282 L 8.06746,-221.464 L 7.92133,-221.661 L 7.7952,-221.872 L 7.69029,-222.093
 L 7.60764,-222.324 L 7.54803,-222.562 L 7.51202,-222.805 L 7.5,-223.05 L 7.51202,-223.295 L 7.54803,-223.538
 L 7.60764,-223.776 L 7.69029,-224.007 L 7.7952,-224.228 L 7.92133,-224.439 L 8.06746,-224.636 L 8.23222,-224.818
 L 8.41402,-224.983 L 8.61107,-225.129 L 8.8215,-225.255 L 9.04329,-225.36 L 9.27428,-225.442 L 9.51227,-225.502
 L 9.75494,-225.538 L 10,-225.55 L 10.245,-225.538 L 10.4877,-225.502 L 10.7257,-225.442 L 10.9567,-225.36
 L 11.1785,-225.255 L 11.3889,-225.129 L 11.586,-224.983 L 11.7678,-224.818 L 11.9325,-224.636 L 12.0787,-224.439
 L 12.2048,-224.228 L 12.3097,-224.007 L 12.3923,-223.776 L 12.452,-223.538 L 12.488,-223.295 L 12.5,-223.05
 L 12.488,-222.805 L 12.452,-222.562 L 12.3923,-222.324 L 12.3097,-222.093 L 12.2048,-221.872 L 12.0787,-221.661
 L 11.9325,-221.464 L 11.7678,-221.282 L 11.586,-221.117 L 11.3889,-220.971 L 11.1785,-220.845 L 10.9567,-220.74
 L 10.7257,-220.658 L 10.4877,-220.598 L 10.245,-220.562 L 10,-220.55 z
M 32.5,-220.55 L 32.2549,-220.562 L 32.0123,-220.598 L 31.7743,-220.658 L 31.5433,-220.74 L 31.3215,-220.845
 L 31.1111,-220.971 L 30.914,-221.117 L 30.7322,-221.282 L 30.5675,-221.464 L 30.4213,-221.661 L 30.2952,-221.872
 L 30.1903,-222.093 L 30.1076,-222.324 L 30.048,-222.562 L 30.012,-222.805 L 30,-223.05 L 30.012,-223.295
 L 30.048,-223.538 L 30.1076,-223.776 L 30.1903,-224.007 L 30.2952,-224.228 L 30.4213,-224.439 L 30.5675,-224.636
 L 30.7322,-224.818 L 30.914,-224.983 L 31.1111,-225.129 L 31.3215,-225.255 L 31.5433,-225.36 L 31.7743,-225.442
 L 32.0123,-225.502 L 32.2549,-225.538 L 32.5,-225.55 L 57.5,-225.55 L 57.745,-225.538 L 57.9877,-225.502
 L 58.2257,-225.442 L 58.4567,-225.36 L 58.6785,-225.255 L 58.8889,-225.129 L 59.086,-224.983 L 59.2678,-224.818
 L 59.4325,-224.636 L 59.5787,-224.439 L 59.7048,-224.228 L 59.8097,-224.007 L 59.8923,-223.776 L 59.952,-223.538
 L 59.988,-223.295 L 60,-223.05 L 59.988,-222.805 L 59.952,-222.562 L 59.8923,-222.324 L 59.8097,-222.093
 L 59.7048,-221.872 L 59.5787,-221.661 L 59.4325,-221.464 L 59.2678,-221.282 L 59.086,-221.117 L 58.8889,-220.971
 L 58.6785,-220.845 L 58.4567,-220.74 L 58.2257,-220.658 L 57.9877,-220.598 L 57.745,-220.562 L 57.5,-220.55
 z
M 98.2005,-201.532 L 98.0525,-201.554 L 97.9073,-201.591 L 97.7664,-201.641 L 97.6311,-201.705 L 97.5027,-201.782
 L 97.3825,-201.871 L 97.2717,-201.972 L 97.1712,-202.083 L 97.082,-202.203 L 97.0051,-202.331 L 96.9411,-202.466
 L 96.8907,-202.607 L 96.8543,-202.752 L 96.8323,-202.901 L 96.825,-203.05 L 96.8323,-203.199 L 96.8543,-203.348
 L 96.8907,-203.493 L 96.9411,-203.634 L 97.0051,-203.769 L 97.082,-203.897 L 97.1712,-204.017 L 97.2717,-204.128
 L 97.3825,-204.229 L 97.5027,-204.318 L 97.6311,-204.395 L 97.7664,-204.459 L 97.9073,-204.509 L 98.0525,-204.546
 L 98.2005,-204.568 L 98.35,-204.575 L 98.4995,-204.568 L 98.6475,-204.546 L 98.7927,-204.509 L 98.9336,-204.459
 L 99.0689,-204.395 L 99.1972,-204.318 L 99.3174,-204.229 L 99.4283,-204.128 L 99.5288,-204.017 L 99.618,-203.897
 L 99.6949,-203.769 L 99.7589,-203.634 L 99.8093,-203.493 L 99.8457,-203.348 L 99.8676,-203.199 L 99.875,-203.05
 L 99.8676,-202.901 L 99.8457,-202.752 L 99.8093,-202.607 L 99.7589,-202.466 L 99.6949,-202.331 L 99.618,-202.203
 L 99.5288,-202.083 L 99.4283,-201.972 L 99.3174,-201.871 L 99.1972,-201.782 L 99.0689,-201.705 L 98.9336,-201.641
 L 98.7927,-201.591 L 98.6475,-201.554 L 98.4995,-201.532 L 98.35,-201.525 z
M 12.3505,-201.532 L 12.2025,-201.554 L 12.0573,-201.591 L 11.9164,-201.641 L 11.7811,-201.705 L 11.6527,-201.782
 L 11.5325,-201.871 L 11.4217,-201.972 L 11.3212,-202.083 L 11.232,-202.203 L 11.1551,-202.331 L 11.0911,-202.466
 L 11.0407,-202.607 L 11.0043,-202.752 L 10.9823,-202.901 L 10.975,-203.05 L 10.9823,-203.199 L 11.0043,-203.348
 L 11.0407,-203.493 L 11.0911,-203.634 L 11.1551,-203.769 L 11.232,-203.897 L 11.3212,-204.017 L 11.4217,-204.128
 L 11.5325,-204.229 L 11.6527,-204.318 L 11.7811,-204.395 L 11.9164,-204.459 L 12.0573,-204.509 L 12.2025,-204.546
 L 12.3505,-204.568 L 12.5,-204.575 L 12.6495,-204.568 L 12.7975,-204.546 L 12.9427,-204.509 L 13.0836,-204.459
 L 13.2189,-204.395 L 13.3472,-204.318 L 13.4674,-204.229 L 13.5783,-204.128 L 13.6788,-204.017 L 13.768,-203.897
 L 13.8449,-203.769 L 13.9089,-203.634 L 13.9593,-203.493 L 13.9957,-203.348 L 14.0177,-203.199 L 14.025,-203.05
 L 14.0177,-202.901 L 13.9957,-202.752 L 13.9593,-202.607 L 13.9089,-202.466 L 13.8449,-202.331 L 13.768,-202.203
 L 13.6788,-202.083 L 13.5783,-201.972 L 13.4674,-201.871 L 13.3472,-201.782 L 13.2189,-201.705 L 13.0836,-201.641
 L 12.9427,-201.591 L 12.7975,-201.554 L 12.6495,-201.532 L 12.5,-201.525 z
M 34.6049,-160.712 L 34.3623,-160.748 L 34.1243,-160.808 L 33.8933,-160.89 L 33.6715,-160.995 L 33.4611,-161.121
 L 33.264,-161.267 L 33.0822,-161.432 L 32.9175,-161.614 L 32.7713,-161.811 L 32.6452,-162.022 L 32.5403,-162.243
 L 32.4576,-162.474 L 32.398,-162.712 L 32.362,-162.955 L 32.35,-163.2 L 32.362,-163.445 L 32.398,-163.688
 L 32.4576,-163.926 L 32.5403,-164.157 L 32.6452,-164.378 L 32.7713,-164.589 L 32.9175,-164.786 L 33.0822,-164.968
 L 33.264,-165.133 L 33.4611,-165.279 L 33.6715,-165.405 L 33.8933,-165.51 L 34.1243,-165.592 L 34.3623,-165.652
 L 34.6049,-165.688 L 34.85,-165.7 L 35.095,-165.688 L 35.3377,-165.652 L 35.5757,-165.592 L 35.8067,-165.51
 L 36.0285,-165.405 L 36.2389,-165.279 L 36.436,-165.133 L 36.6178,-164.968 L 36.7825,-164.786 L 36.9287,-164.589
 L 37.0548,-164.378 L 37.1597,-164.157 L 37.2424,-163.926 L 37.302,-163.688 L 37.338,-163.445 L 37.35,-163.2
 L 37.338,-162.955 L 37.302,-162.712 L 37.2424,-162.474 L 37.1597,-162.243 L 37.0548,-162.022 L 36.9287,-161.811
 L 36.7825,-161.614 L 36.6178,-161.432 L 36.436,-161.267 L 36.2389,-161.121 L 36.0285,-160.995 L 35.8067,-160.89
 L 35.5757,-160.808 L 35.3377,-160.748 L 35.095,-160.712 L 34.85,-160.7 z
M 54.6049,-160.712 L 54.3623,-160.748 L 54.1243,-160.808 L 53.8933,-160.89 L 53.6715,-160.995 L 53.4611,-161.121
 L 53.264,-161.267 L 53.0822,-161.432 L 52.9174,-161.614 L 52.7713,-161.811 L 52.6452,-162.022 L 52.5403,-162.243
 L 52.4576,-162.474 L 52.398,-162.712 L 52.362,-162.955 L 52.35,-163.2 L 52.362,-163.445 L 52.398,-163.688
 L 52.4576,-163.926 L 52.5403,-164.157 L 52.6452,-164.378 L 52.7713,-164.589 L 52.9174,-164.786 L 53.0822,-164.968
 L 53.264,-165.133 L 53.4611,-165.279 L 53.6715,-165.405 L 53.8933,-165.51 L 54.1243,-165.592 L 54.3623,-165.652
 L 54.6049,-165.688 L 54.85,-165.7 L 55.095,-165.688 L 55.3377,-165.652 L 55.5757,-165.592 L 55.8067,-165.51
 L 56.0285,-165.405 L 56.2389,-165.279 L 56.436,-165.133 L 56.6178,-164.968 L 56.7825,-164.786 L 56.9286,-164.589
 L 57.0548,-164.378 L 57.1597,-164.157 L 57.2423,-163.926 L 57.3019,-163.688 L 57.338,-163.445 L 57.35,-163.2
 L 57.338,-162.955 L 57.3019,-162.712 L 57.2423,-162.474 L 57.1597,-162.243 L 57.0548,-162.022 L 56.9286,-161.811
 L 56.7825,-161.614 L 56.6178,-161.432 L 56.436,-161.267 L 56.2389,-161.121 L 56.0285,-160.995 L 55.8067,-160.89
 L 55.5757,-160.808 L 55.3377,-160.748 L 55.095,-160.712 L 54.85,-160.7 z
M 60.203,-132.207 L 60.0573,-132.229 L 59.9146,-132.265 L 59.776,-132.314 L 59.6429,-132.377 L 59.5166,-132.453
 L 59.3984,-132.54 L 59.2893,-132.639 L 59.1905,-132.748 L 59.1028,-132.867 L 59.0271,-132.993 L 58.9642,-133.126
 L 58.9146,-133.265 L 58.8788,-133.407 L 58.8572,-133.553 L 58.85,-133.7 L 58.85,-143.7 L 58.8572,-143.847
 L 58.8788,-143.993 L 58.9146,-144.135 L 58.9642,-144.274 L 59.0271,-144.407 L 59.1028,-144.533 L 59.1905,-144.652
 L 59.2893,-144.761 L 59.3984,-144.86 L 59.5166,-144.947 L 59.6429,-145.023 L 59.776,-145.086 L 59.9146,-145.135
 L 60.0573,-145.171 L 60.203,-145.193 L 60.35,-145.2 L 60.497,-145.193 L 60.6426,-145.171 L 60.7854,-145.135
 L 60.924,-145.086 L 61.0571,-145.023 L 61.1833,-144.947 L 61.3016,-144.86 L 61.4106,-144.761 L 61.5095,-144.652
 L 61.5972,-144.533 L 61.6729,-144.407 L 61.7358,-144.274 L 61.7854,-144.135 L 61.8212,-143.993 L 61.8428,-143.847
 L 61.85,-143.7 L 61.85,-133.7 L 61.8428,-133.553 L 61.8212,-133.407 L 61.7854,-133.265 L 61.7358,-133.126
 L 61.6729,-132.993 L 61.5972,-132.867 L 61.5095,-132.748 L 61.4106,-132.639 L 61.3016,-132.54 L 61.1833,-132.453
 L 61.0571,-132.377 L 60.924,-132.314 L 60.7854,-132.265 L 60.6426,-132.229 L 60.497,-132.207 L 60.35,-132.2
 z
M 29.203,-132.207 L 29.0574,-132.229 L 28.9146,-132.265 L 28.776,-132.314 L 28.6429,-132.377 L 28.5166,-132.453
 L 28.3984,-132.54 L 28.2893,-132.639 L 28.1905,-132.748 L 28.1028,-132.867 L 28.0271,-132.993 L 27.9642,-133.126
 L 27.9146,-133.265 L 27.8788,-133.407 L 27.8572,-133.553 L 27.85,-133.7 L 27.85,-143.7 L 27.8572,-143.847
 L 27.8788,-143.993 L 27.9146,-144.135 L 27.9642,-144.274 L 28.0271,-144.407 L 28.1028,-144.533 L 28.1905,-144.652
 L 28.2893,-144.761 L 28.3984,-144.86 L 28.5166,-144.947 L 28.6429,-145.023 L 28.776,-145.086 L 28.9146,-145.135
 L 29.0574,-145.171 L 29.203,-145.193 L 29.35,-145.2 L 29.497,-145.193 L 29.6426,-145.171 L 29.7854,-145.135
 L 29.924,-145.086 L 30.0571,-145.023 L 30.1833,-144.947 L 30.3016,-144.86 L 30.4107,-144.761 L 30.5095,-144.652
 L 30.5972,-144.533 L 30.6729,-144.407 L 30.7358,-144.274 L 30.7854,-144.135 L 30.8212,-143.993 L 30.8428,-143.847
 L 30.85,-143.7 L 30.85,-133.7 L 30.8428,-133.553 L 30.8212,-133.407 L 30.7854,-133.265 L 30.7358,-133.126
 L 30.6729,-132.993 L 30.5972,-132.867 L 30.5095,-132.748 L 30.4107,-132.639 L 30.3016,-132.54 L 30.1833,-132.453
 L 30.0571,-132.377 L 29.924,-132.314 L 29.7854,-132.265 L 29.6426,-132.229 L 29.497,-132.207 L 29.35,-132.2
 z
M 43.7473,-107.004 L 42.6552,-107.166 L 41.5843,-107.434 L 40.5448,-107.806 L 39.5468,-108.278 L 38.5998,-108.846
 L 37.7131,-109.504 L 36.8951,-110.245 L 36.1536,-111.063 L 35.496,-111.95 L 34.9284,-112.897 L 34.4564,-113.895
 L 34.0844,-114.934 L 33.8162,-116.005 L 33.6542,-117.097 L 33.6,-118.2 L 33.6,-128.2 L 33.6542,-129.303
 L 33.8162,-130.395 L 34.0844,-131.466 L 34.4564,-132.505 L 34.9284,-133.503 L 35.496,-134.45 L 36.1536,-135.337
 L 36.8951,-136.155 L 37.7131,-136.896 L 38.5998,-137.554 L 39.5468,-138.122 L 40.5448,-138.594 L 41.5843,-138.966
 L 42.6552,-139.234 L 43.7473,-139.396 L 44.85,-139.45 L 45.9527,-139.396 L 47.0448,-139.234 L 48.1157,-138.966
 L 49.1552,-138.594 L 50.1532,-138.122 L 51.1001,-137.554 L 51.9869,-136.896 L 52.8049,-136.155 L 53.5464,-135.337
 L 54.204,-134.45 L 54.7716,-133.503 L 55.2436,-132.505 L 55.6156,-131.466 L 55.8838,-130.395 L 56.0458,-129.303
 L 56.1,-128.2 L 56.1,-118.2 L 56.0458,-117.097 L 55.8838,-116.005 L 55.6156,-114.934 L 55.2436,-113.895
 L 54.7716,-112.897 L 54.204,-111.95 L 53.5464,-111.063 L 52.8049,-110.245 L 51.9869,-109.504 L 51.1001,-108.846
 L 50.1532,-108.278 L 49.1552,-107.806 L 48.1157,-107.434 L 47.0448,-107.166 L 45.9527,-107.004 L 44.85,-106.95
 z
M 60.203,-101.207 L 60.0573,-101.229 L 59.9146,-101.265 L 59.776,-101.314 L 59.6429,-101.377 L 59.5166,-101.453
 L 59.3984,-101.54 L 59.2893,-101.639 L 59.1905,-101.748 L 59.1028,-101.867 L 59.0271,-101.993 L 58.9642,-102.126
 L 58.9146,-102.265 L 58.8788,-102.407 L 58.8572,-102.553 L 58.85,-102.7 L 58.85,-112.7 L 58.8572,-112.847
 L 58.8788,-112.993 L 58.9146,-113.135 L 58.9642,-113.274 L 59.0271,-113.407 L 59.1028,-113.533 L 59.1905,-113.652
 L 59.2893,-113.761 L 59.3984,-113.86 L 59.5166,-113.947 L 59.6429,-114.023 L 59.776,-114.086 L 59.9146,-114.135
 L 60.0573,-114.171 L 60.203,-114.193 L 60.35,-114.2 L 60.497,-114.193 L 60.6426,-114.171 L 60.7854,-114.135
 L 60.924,-114.086 L 61.0571,-114.023 L 61.1833,-113.947 L 61.3016,-113.86 L 61.4106,-113.761 L 61.5095,-113.652
 L 61.5972,-113.533 L 61.6729,-113.407 L 61.7358,-113.274 L 61.7854,-113.135 L 61.8212,-112.993 L 61.8428,-112.847
 L 61.85,-112.7 L 61.85,-102.7 L 61.8428,-102.553 L 61.8212,-102.407 L 61.7854,-102.265 L 61.7358,-102.126
 L 61.6729,-101.993 L 61.5972,-101.867 L 61.5095,-101.748 L 61.4106,-101.639 L 61.3016,-101.54 L 61.1833,-101.453
 L 61.0571,-101.377 L 60.924,-101.314 L 60.7854,-101.265 L 60.6426,-101.229 L 60.497,-101.207 L 60.35,-101.2
 z
M 29.203,-101.207 L 29.0574,-101.229 L 28.9146,-101.265 L 28.776,-101.314 L 28.6429,-101.377 L 28.5166,-101.453
 L 28.3984,-101.54 L 28.2893,-101.639 L 28.1905,-101.748 L 28.1028,-101.867 L 28.0271,-101.993 L 27.9642,-102.126
 L 27.9146,-102.265 L 27.8788,-102.407 L 27.8572,-102.553 L 27.85,-102.7 L 27.85,-112.7 L 27.8572,-112.847
 L 27.8788,-112.993 L 27.9146,-113.135 L 27.9642,-113.274 L 28.0271,-113.407 L 28.1028,-113.533 L 28.1905,-113.652
 L 28.2893,-113.761 L 28.3984,-113.86 L 28.5166,-113.947 L 28.6429,-114.023 L 28.776,-114.086 L 28.9146,-114.135
 L 29.0574,-114.171 L 29.203,-114.193 L 29.35,-114.2 L 29.497,-114.193 L 29.6426,-114.171 L 29.7854,-114.135
 L 29.924,-114.086 L 30.0571,-114.023 L 30.1833,-113.947 L 30.3016,-113.86 L 30.4107,-113.761 L 30.5095,-113.652
 L 30.5972,-113.533 L 30.6729,-113.407 L 30.7358,-113.274 L 30.7854,-113.135 L 30.8212,-112.993 L 30.8428,-112.847
 L 30.85,-112.7 L 30.85,-102.7 L 30.8428,-102.553 L 30.8212,-102.407 L 30.7854,-102.265 L 30.7358,-102.126
 L 30.6729,-101.993 L 30.5972,-101.867 L 30.5095,-101.748 L 30.4107,-101.639 L 30.3016,-101.54 L 30.1833,-101.453
 L 30.0571,-101.377 L 29.924,-101.314 L 29.7854,-101.265 L 29.6426,-101.229 L 29.497,-101.207 L 29.35,-101.2
 z
M 138.655,-90.712 L 138.412,-90.748 L 138.174,-90.8076 L 137.943,-90.8903 L 137.721,-90.9952 L 137.511,-91.1213
 L 137.314,-91.2675 L 137.132,-91.4322 L 136.967,-91.614 L 136.821,-91.8111 L 136.695,-92.0215 L 136.59,-92.2433
 L 136.508,-92.4743 L 136.448,-92.7123 L 136.412,-92.955 L 136.4,-93.2 L 136.412,-93.445 L 136.448,-93.6877
 L 136.508,-93.9257 L 136.59,-94.1567 L 136.695,-94.3785 L 136.821,-94.5889 L 136.967,-94.786 L 137.132,-94.9678
 L 137.314,-95.1325 L 137.511,-95.2787 L 137.721,-95.4048 L 137.943,-95.5097 L 138.174,-95.5923 L 138.412,-95.652
 L 138.655,-95.688 L 138.9,-95.7 L 139.145,-95.688 L 139.388,-95.652 L 139.626,-95.5923 L 139.857,-95.5097
 L 140.078,-95.4048 L 140.289,-95.2787 L 140.486,-95.1325 L 140.668,-94.9678 L 140.833,-94.786 L 140.979,-94.5889
 L 141.105,-94.3785 L 141.21,-94.1567 L 141.292,-93.9257 L 141.352,-93.6877 L 141.388,-93.445 L 141.4,-93.2
 L 141.388,-92.955 L 141.352,-92.7123 L 141.292,-92.4743 L 141.21,-92.2433 L 141.105,-92.0215 L 140.979,-91.8111
 L 140.833,-91.614 L 140.668,-91.4322 L 140.486,-91.2675 L 140.289,-91.1213 L 140.078,-90.9952 L 139.857,-90.8903
 L 139.626,-90.8076 L 139.388,-90.748 L 139.145,-90.712 L 138.9,-90.7 z
M 75.955,-90.712 L 75.7123,-90.748 L 75.4743,-90.8076 L 75.2433,-90.8903 L 75.0215,-90.9952 L 74.8111,-91.1213
 L 74.614,-91.2675 L 74.4322,-91.4322 L 74.2675,-91.614 L 74.1213,-91.8111 L 73.9952,-92.0215 L 73.8903,-92.2433
 L 73.8076,-92.4743 L 73.748,-92.7123 L 73.712,-92.955 L 73.7,-93.2 L 73.712,-93.445 L 73.748,-93.6877
 L 73.8076,-93.9257 L 73.8903,-94.1567 L 73.9952,-94.3785 L 74.1213,-94.5889 L 74.2675,-94.786 L 74.4322,-94.9678
 L 74.614,-95.1325 L 74.8111,-95.2787 L 75.0215,-95.4048 L 75.2433,-95.5097 L 75.4743,-95.5923 L 75.7123,-95.652
 L 75.955,-95.688 L 76.2,-95.7 L 76.445,-95.688 L 76.6877,-95.652 L 76.9257,-95.5923 L 77.1567,-95.5097
 L 77.3785,-95.4048 L 77.5889,-95.2787 L 77.786,-95.1325 L 77.9678,-94.9678 L 78.1325,-94.786 L 78.2787,-94.5889
 L 78.4048,-94.3785 L 78.5097,-94.1567 L 78.5923,-93.9257 L 78.652,-93.6877 L 78.688,-93.445 L 78.7,-93.2
 L 78.688,-92.955 L 78.652,-92.7123 L 78.5923,-92.4743 L 78.5097,-92.2433 L 78.4048,-92.0215 L 78.2787,-91.8111
 L 78.1325,-91.614 L 77.9678,-91.4322 L 77.786,-91.2675 L 77.5889,-91.1213 L 77.3785,-90.9952 L 77.1567,-90.8903
 L 76.9257,-90.8076 L 76.6877,-90.748 L 76.445,-90.712 L 76.2,-90.7 z
M 13.2549,-90.712 L 13.0123,-90.748 L 12.7743,-90.8076 L 12.5433,-90.8903 L 12.3215,-90.9952 L 12.1111,-91.1213
 L 11.914,-91.2675 L 11.7322,-91.4322 L 11.5675,-91.614 L 11.4213,-91.8111 L 11.2952,-92.0215 L 11.1903,-92.2433
 L 11.1076,-92.4743 L 11.048,-92.7123 L 11.012,-92.955 L 11,-93.2 L 11.012,-93.445 L 11.048,-93.6877
 L 11.1076,-93.9257 L 11.1903,-94.1567 L 11.2952,-94.3785 L 11.4213,-94.5889 L 11.5675,-94.786 L 11.7322,-94.9678
 L 11.914,-95.1325 L 12.1111,-95.2787 L 12.3215,-95.4048 L 12.5433,-95.5097 L 12.7743,-95.5923 L 13.0123,-95.652
 L 13.2549,-95.688 L 13.5,-95.7 L 13.745,-95.688 L 13.9877,-95.652 L 14.2257,-95.5923 L 14.4567,-95.5097
 L 14.6785,-95.4048 L 14.8889,-95.2787 L 15.086,-95.1325 L 15.2678,-94.9678 L 15.4325,-94.786 L 15.5787,-94.5889
 L 15.7048,-94.3785 L 15.8097,-94.1567 L 15.8923,-93.9257 L 15.952,-93.6877 L 15.988,-93.445 L 16,-93.2
 L 15.988,-92.955 L 15.952,-92.7123 L 15.8923,-92.4743 L 15.8097,-92.2433 L 15.7048,-92.0215 L 15.5787,-91.8111
 L 15.4325,-91.614 L 15.2678,-91.4322 L 15.086,-91.2675 L 14.8889,-91.1213 L 14.6785,-90.9952 L 14.4567,-90.8903
 L 14.2257,-90.8076 L 13.9877,-90.748 L 13.745,-90.712 L 13.5,-90.7 z
M 138.547,-9.91733 L 138.198,-9.96916 L 137.855,-10.055 L 137.522,-10.174 L 137.203,-10.3251 L 136.9,-10.5067
 L 136.616,-10.7171 L 136.354,-10.9544 L 136.117,-11.2162 L 135.907,-11.4999 L 135.725,-11.803 L 135.574,-12.1223
 L 135.455,-12.455 L 135.369,-12.7977 L 135.317,-13.1471 L 135.3,-13.5 L 135.317,-13.8529 L 135.369,-14.2023
 L 135.455,-14.545 L 135.574,-14.8777 L 135.725,-15.197 L 135.907,-15.5 L 136.117,-15.7838 L 136.354,-16.0456
 L 136.616,-16.2828 L 136.9,-16.4933 L 137.203,-16.6749 L 137.522,-16.826 L 137.855,-16.945 L 138.198,-17.0308
 L 138.547,-17.0827 L 138.9,-17.1 L 139.253,-17.0827 L 139.602,-17.0308 L 139.945,-16.945 L 140.278,-16.826
 L 140.597,-16.6749 L 140.9,-16.4933 L 141.184,-16.2828 L 141.446,-16.0456 L 141.683,-15.7838 L 141.893,-15.5
 L 142.075,-15.197 L 142.226,-14.8777 L 142.345,-14.545 L 142.431,-14.2023 L 142.483,-13.8529 L 142.5,-13.5
 L 142.483,-13.1471 L 142.431,-12.7977 L 142.345,-12.455 L 142.226,-12.1223 L 142.075,-11.803 L 141.893,-11.4999
 L 141.683,-11.2162 L 141.446,-10.9544 L 141.184,-10.7171 L 140.9,-10.5067 L 140.597,-10.3251 L 140.278,-10.174
 L 139.945,-10.055 L 139.602,-9.96916 L 139.253,-9.91733 L 138.9,-9.89999 z
M 75.8471,-9.91733 L 75.4977,-9.96916 L 75.155,-10.055 L 74.8223,-10.174 L 74.503,-10.3251 L 74.1999,-10.5067
 L 73.9162,-10.7171 L 73.6544,-10.9544 L 73.4172,-11.2162 L 73.2067,-11.4999 L 73.0251,-11.803 L 72.874,-12.1223
 L 72.755,-12.455 L 72.6692,-12.7977 L 72.6173,-13.1471 L 72.6,-13.5 L 72.6173,-13.8529 L 72.6692,-14.2023
 L 72.755,-14.545 L 72.874,-14.8777 L 73.0251,-15.197 L 73.2067,-15.5 L 73.4172,-15.7838 L 73.6544,-16.0456
 L 73.9162,-16.2828 L 74.1999,-16.4933 L 74.503,-16.6749 L 74.8223,-16.826 L 75.155,-16.945 L 75.4977,-17.0308
 L 75.8471,-17.0827 L 76.2,-17.1 L 76.5529,-17.0827 L 76.9023,-17.0308 L 77.245,-16.945 L 77.5777,-16.826
 L 77.897,-16.6749 L 78.2,-16.4933 L 78.4838,-16.2828 L 78.7456,-16.0456 L 78.9828,-15.7838 L 79.1933,-15.5
 L 79.3749,-15.197 L 79.526,-14.8777 L 79.645,-14.545 L 79.7308,-14.2023 L 79.7827,-13.8529 L 79.8,-13.5
 L 79.7827,-13.1471 L 79.7308,-12.7977 L 79.645,-12.455 L 79.526,-12.1223 L 79.3749,-11.803 L 79.1933,-11.4999
 L 78.9828,-11.2162 L 78.7456,-10.9544 L 78.4838,-10.7171 L 78.2,-10.5067 L 77.897,-10.3251 L 77.5777,-10.174
 L 77.245,-10.055 L 76.9023,-9.96916 L 76.5529,-9.91733 L 76.2,-9.89999 z
M 13.1471,-9.91733 L 12.7977,-9.96916 L 12.455,-10.055 L 12.1223,-10.174 L 11.803,-10.3251 L 11.4999,-10.5067
 L 11.2162,-10.7171 L 10.9544,-10.9544 L 10.7171,-11.2162 L 10.5067,-11.4999 L 10.3251,-11.803 L 10.174,-12.1223
 L 10.055,-12.455 L 9.96916,-12.7977 L 9.91733,-13.1471 L 9.89999,-13.5 L 9.91733,-13.8529 L 9.96916,-14.2023
 L 10.055,-14.545 L 10.174,-14.8777 L 10.3251,-15.197 L 10.5067,-15.5 L 10.7171,-15.7838 L 10.9544,-16.0456
 L 11.2162,-16.2828 L 11.4999,-16.4933 L 11.803,-16.6749 L 12.1223,-16.826 L 12.455,-16.945 L 12.7977,-17.0308
 L 13.1471,-17.0827 L 13.5,-17.1 L 13.8529,-17.0827 L 14.2023,-17.0308 L 14.545,-16.945 L 14.8777,-16.826
 L 15.197,-16.6749 L 15.5,-16.4933 L 15.7838,-16.2828 L 16.0456,-16.0456 L 16.2828,-15.7838 L 16.4933,-15.5
 L 16.6749,-15.197 L 16.826,-14.8777 L 16.945,-14.545 L 17.0308,-14.2023 L 17.0827,-13.8529 L 17.1,-13.5
 L 17.0827,-13.1471 L 17.0308,-12.7977 L 16.945,-12.455 L 16.826,-12.1223 L 16.6749,-11.803 L 16.4933,-11.4999
 L 16.2828,-11.2162 L 16.0456,-10.9544 L 15.7838,-10.7171 L 15.5,-10.5067 L 15.197,-10.3251 L 14.8777,-10.174
 L 14.545,-10.055 L 14.2023,-9.96916 L 13.8529,-9.91733 L 13.5,-9.89999 z
" stroke="black" fill="lightgray" stroke-width="0.5"/></svg>
