<?xml version="1.0" standalone="no"?>
<!DOCTYPE svg PUBLIC "-//W3C//DTD SVG 1.1//EN" "http://www.w3.org/Graphics/SVG/1.1/DTD/svg11.dtd">
<svg width="128" height="235" viewBox="-64 -135 128 235" xmlns="http://www.w3.org/2000/svg" version="1.1">
<title>OpenSCAD Model</title>
<path d="
M 51.3232,-0.0650024 L 52.6337,-0.259399 L 53.9188,-0.581299 L 55.1662,-1.02763 L 56.3639,-1.59407 L 57.5002,-2.27516
 L 58.5643,-3.06436 L 59.5459,-3.95406 L 60.4356,-4.93568 L 61.2248,-5.9998 L 61.9059,-7.13614 L 62.4724,-8.33377
 L 62.9187,-9.58116 L 63.2406,-10.8663 L 63.435,-12.1768 L 63.5,-13.5 L 63.5,-14.6581 L 63.435,-15.9813
 L 63.2406,-17.2918 L 62.9187,-18.577 L 62.4724,-19.8243 L 61.9059,-21.022 L 61.2248,-22.1583 L 60.4356,-23.2224
 L 59.5459,-24.2041 L 50.2344,-33.5156 L 50.0148,-33.7579 L 49.9818,-33.8895 L 49.9734,-33.9391 L 47.3461,-52.6219
 L 47.3184,-52.9268 L 47.643,-53.2358 L 57.3294,-61.3078 L 58.3043,-62.2049 L 59.1866,-63.1932 L 59.9678,-64.2632
 L 60.6403,-65.4046 L 61.1977,-66.6064 L 61.6347,-67.8571 L 61.9469,-69.1447 L 62.1315,-70.4566 L 62.1865,-71.7802
 L 62.1116,-73.103 L 61.9247,-74.3264 L 61.0894,-78.5029 L 60.7662,-79.7876 L 60.3186,-81.0346 L 59.7509,-82.2316
 L 59.0686,-83.3672 L 58.2783,-84.4305 L 57.3875,-85.4112 L 56.285,-86.397 L 43.5088,-96.618 L 43.2783,-96.8217
 L 43.0988,-97.1996 L 31.3097,-126.403 L 30.7541,-127.606 L 30.0833,-128.749 L 29.3037,-129.82 L 28.4229,-130.809
 L 27.4493,-131.708 L 26.3924,-132.507 L 25.2623,-133.198 L 24.0698,-133.775 L 22.8265,-134.233 L 21.5443,-134.566
 L 20.2356,-134.772 L 18.7912,-134.85 L -18.7912,-134.85 L -20.1145,-134.785 L -21.4249,-134.591 L -22.7101,-134.269
 L -23.9575,-133.822 L -25.1551,-133.256 L -26.2914,-132.575 L -27.3555,-131.786 L -28.3372,-130.896 L -29.2269,-129.914
 L -30.0161,-128.85 L -30.6972,-127.714 L -31.3097,-126.403 L -43.126,-97.1323 L -43.2549,-96.8531 L -43.5656,-96.5725
 L -56.285,-86.397 L -57.2776,-85.5196 L -58.1795,-84.5492 L -58.9819,-83.495 L -59.6772,-82.3673 L -60.2585,-81.1768
 L -60.7204,-79.9351 L -61.0894,-78.5029 L -61.9247,-74.3264 L -62.1205,-73.0161 L -62.1869,-71.6929 L -62.1233,-70.3696
 L -61.9302,-69.0589 L -61.6097,-67.7735 L -61.1647,-66.5256 L -60.5995,-65.3274 L -59.9196,-64.1904 L -59.1315,-63.1254
 L -58.2428,-62.1429 L -57.3294,-61.3078 L -47.5545,-53.1621 L -47.3292,-52.9548 L -47.3621,-52.5081 L -49.9539,-34.0782
 L -50.0152,-33.757 L -50.1004,-33.6516 L -50.1349,-33.6151 L -59.5459,-24.2041 L -60.4356,-23.2224 L -61.2248,-22.1583
 L -61.9059,-21.022 L -62.4724,-19.8243 L -62.9187,-18.577 L -63.2406,-17.2918 L -63.435,-15.9813 L -63.5,-14.6581
 L -63.5,-13.5 L -63.435,-12.1768 L -63.2406,-10.8663 L -62.9187,-9.58116 L -62.4724,-8.33377 L -61.9059,-7.13614
 L -61.2248,-5.9998 L -60.4356,-4.93568 L -59.5459,-3.95406 L -58.5643,-3.06436 L -57.5002,-2.27516 L -56.3639,-1.59407
 L -55.1662,-1.02763 L -53.9188,-0.581299 L -52.6337,-0.259399 L -51.3232,-0.0650024 L -50,-0 L 50,-0
 z
M 15.353,-109.207 L 15.2074,-109.229 L 15.0646,-109.265 L 14.926,-109.314 L 14.7929,-109.377 L 14.6666,-109.453
 L 14.5484,-109.54 L 14.4393,-109.639 L 14.3405,-109.748 L 14.2528,-109.867 L 14.1771,-109.993 L 14.1142,-110.126
 L 14.0646,-110.265 L 14.0288,-110.407 L 14.0072,-110.553 L 14,-110.7 L 14,-120.7 L 14.0072,-120.847
 L 14.0288,-120.993 L 14.0646,-121.135 L 14.1142,-121.274 L 14.1771,-121.407 L 14.2528,-121.533 L 14.3405,-121.652
 L 14.4393,-121.761 L 14.5484,-121.86 L 14.6666,-121.947 L 14.7929,-122.023 L 14.926,-122.086 L 15.0646,-122.135
 L 15.2074,-122.171 L 15.353,-122.193 L 15.5,-122.2 L 15.647,-122.193 L 15.7926,-122.171 L 15.9354,-122.135
 L 16.074,-122.086 L 16.2071,-122.023 L 16.3333,-121.947 L 16.4516,-121.86 L 16.5607,-121.761 L 16.6595,-121.652
 L 16.7472,-121.533 L 16.8229,-121.407 L 16.8858,-121.274 L 16.9354,-121.135 L 16.9712,-120.993 L 16.9928,-120.847
 L 17,-120.7 L 17,-110.7 L 16.9928,-110.553 L 16.9712,-110.407 L 16.9354,-110.265 L 16.8858,-110.126
 L 16.8229,-109.993 L 16.7472,-109.867 L 16.6595,-109.748 L 16.5607,-109.639 L 16.4516,-109.54 L 16.3333,-109.453
 L 16.2071,-109.377 L 16.074,-109.314 L 15.9354,-109.265 L 15.7926,-109.229 L 15.647,-109.207 L 15.5,-109.2
 z
M -15.647,-109.207 L -15.7926,-109.229 L -15.9354,-109.265 L -16.074,-109.314 L -16.2071,-109.377 L -16.3333,-109.453
 L -16.4516,-109.54 L -16.5606,-109.639 L -16.6595,-109.748 L -16.7472,-109.867 L -16.8229,-109.993 L -16.8858,-110.126
 L -16.9354,-110.265 L -16.9712,-110.407 L -16.9928,-110.553 L -17,-110.7 L -17,-120.7 L -16.9928,-120.847
 L -16.9712,-120.993 L -16.9354,-121.135 L -16.8858,-121.274 L -16.8229,-121.407 L -16.7472,-121.533 L -16.6595,-121.652
 L -16.5606,-121.761 L -16.4516,-121.86 L -16.3333,-121.947 L -16.2071,-122.023 L -16.074,-122.086 L -15.9354,-122.135
 L -15.7926,-122.171 L -15.647,-122.193 L -15.5,-122.2 L -15.353,-122.193 L -15.2073,-122.171 L -15.0645,-122.135
 L -14.9259,-122.086 L -14.7929,-122.023 L -14.6666,-121.947 L -14.5484,-121.86 L -14.4393,-121.761 L -14.3405,-121.652
 L -14.2528,-121.533 L -14.1771,-121.407 L -14.1142,-121.274 L -14.0646,-121.135 L -14.0288,-120.993 L -14.0072,-120.847
 L -14,-120.7 L -14,-110.7 L -14.0072,-110.553 L -14.0288,-110.407 L -14.0646,-110.265 L -14.1142,-110.126
 L -14.1771,-109.993 L -14.2528,-109.867 L -14.3405,-109.748 L -14.4393,-109.639 L -14.5484,-109.54 L -14.6666,-109.453
 L -14.7929,-109.377 L -14.9259,-109.314 L -15.0645,-109.265 L -15.2073,-109.229 L -15.353,-109.207 L -15.5,-109.2
 z
M -1.10269,-84.0042 L -2.19476,-84.1662 L -3.2657,-84.4344 L -4.30518,-84.8064 L -5.30321,-85.2784 L -6.25015,-85.846
 L -7.13692,-86.5036 L -7.95494,-87.2451 L -8.69637,-88.0631 L -9.35402,-88.9498 L -9.9216,-89.8968 L -10.3936,-90.8948
 L -10.7656,-91.9343 L -11.0338,-93.0052 L -11.1958,-94.0973 L -11.25,-95.2 L -11.25,-105.2 L -11.1958,-106.303
 L -11.0338,-107.395 L -10.7655,-108.466 L -10.3936,-109.505 L -9.92159,-110.503 L -9.354,-111.45 L -8.69635,-112.337
 L -7.95493,-113.155 L -7.1369,-113.896 L -6.25014,-114.554 L -5.30319,-115.122 L -4.30516,-115.594 L -3.26569,-115.966
 L -2.19475,-116.234 L -1.10268,-116.396 L 0,-116.45 L 1.10269,-116.396 L 2.19476,-116.234 L 3.2657,-115.966
 L 4.30518,-115.594 L 5.30321,-115.122 L 6.25015,-114.554 L 7.13692,-113.896 L 7.95494,-113.155 L 8.69637,-112.337
 L 9.35402,-111.45 L 9.9216,-110.503 L 10.3936,-109.505 L 10.7656,-108.466 L 11.0338,-107.395 L 11.1958,-106.303
 L 11.25,-105.2 L 11.25,-95.2 L 11.1958,-94.0973 L 11.0338,-93.0052 L 10.7655,-91.9343 L 10.3936,-90.8948
 L 9.92159,-89.8968 L 9.354,-88.9498 L 8.69635,-88.0631 L 7.95493,-87.2451 L 7.1369,-86.5036 L 6.25014,-85.846
 L 5.30319,-85.2784 L 4.30516,-84.8064 L 3.26569,-84.4344 L 2.19475,-84.1662 L 1.10268,-84.0042 L 0,-83.95
 z
M 15.353,-78.2072 L 15.2073,-78.2288 L 15.0645,-78.2646 L 14.9259,-78.3142 L 14.7929,-78.3771 L 14.6666,-78.4528
 L 14.5484,-78.5405 L 14.4393,-78.6393 L 14.3405,-78.7484 L 14.2528,-78.8667 L 14.1771,-78.9929 L 14.1142,-79.126
 L 14.0646,-79.2646 L 14.0288,-79.4074 L 14.0072,-79.553 L 14,-79.7 L 14,-89.7 L 14.0072,-89.847
 L 14.0288,-89.9926 L 14.0646,-90.1354 L 14.1142,-90.274 L 14.1771,-90.4071 L 14.2528,-90.5334 L 14.3405,-90.6516
 L 14.4393,-90.7607 L 14.5484,-90.8595 L 14.6666,-90.9472 L 14.7929,-91.0229 L 14.9259,-91.0858 L 15.0645,-91.1354
 L 15.2073,-91.1712 L 15.353,-91.1928 L 15.5,-91.2 L 15.647,-91.1928 L 15.7926,-91.1712 L 15.9354,-91.1354
 L 16.074,-91.0858 L 16.2071,-91.0229 L 16.3333,-90.9472 L 16.4516,-90.8595 L 16.5606,-90.7607 L 16.6595,-90.6516
 L 16.7472,-90.5334 L 16.8229,-90.4071 L 16.8858,-90.274 L 16.9354,-90.1354 L 16.9712,-89.9926 L 16.9928,-89.847
 L 17,-89.7 L 17,-79.7 L 16.9928,-79.553 L 16.9712,-79.4074 L 16.9354,-79.2646 L 16.8858,-79.126
 L 16.8229,-78.9929 L 16.7472,-78.8667 L 16.6595,-78.7484 L 16.5606,-78.6393 L 16.4516,-78.5405 L 16.3333,-78.4528
 L 16.2071,-78.3771 L 16.074,-78.3142 L 15.9354,-78.2646 L 15.7926,-78.2288 L 15.647,-78.2072 L 15.5,-78.2
 z
M -15.647,-78.2072 L -15.7926,-78.2288 L -15.9354,-78.2646 L -16.074,-78.3142 L -16.2071,-78.3771 L -16.3333,-78.4528
 L -16.4516,-78.5405 L -16.5607,-78.6393 L -16.6595,-78.7484 L -16.7472,-78.8667 L -16.8229,-78.9929 L -16.8858,-79.126
 L -16.9354,-79.2646 L -16.9712,-79.4074 L -16.9928,-79.553 L -17,-79.7 L -17,-89.7 L -16.9928,-89.847
 L -16.9712,-89.9926 L -16.9354,-90.1354 L -16.8858,-90.274 L -16.8229,-90.4071 L -16.7472,-90.5334 L -16.6595,-90.6516
 L -16.5607,-90.7607 L -16.4516,-90.8595 L -16.3333,-90.9472 L -16.2071,-91.0229 L -16.074,-91.0858 L -15.9354,-91.1354
 L -15.7926,-91.1712 L -15.647,-91.1928 L -15.5,-91.2 L -15.353,-91.1928 L -15.2074,-91.1712 L -15.0646,-91.1354
 L -14.926,-91.0858 L -14.7929,-91.0229 L -14.6666,-90.9472 L -14.5484,-90.8595 L -14.4393,-90.7607 L -14.3405,-90.6516
 L -14.2528,-90.5334 L -14.1771,-90.4071 L -14.1142,-90.274 L -14.0646,-90.1354 L -14.0288,-89.9926 L -14.0072,-89.847
 L -14,-89.7 L -14,-79.7 L -14.0072,-79.553 L -14.0288,-79.4074 L -14.0646,-79.2646 L -14.1142,-79.126
 L -14.1771,-78.9929 L -14.2528,-78.8667 L -14.3405,-78.7484 L -14.4393,-78.6393 L -14.5484,-78.5405 L -14.6666,-78.4528
 L -14.7929,-78.3771 L -14.926,-78.3142 L -15.0646,-78.2646 L -15.2074,-78.2288 L -15.353,-78.2072 L -15.5,-78.2
 z
M 49.7549,-70.712 L 49.5123,-70.748 L 49.2743,-70.8076 L 49.0433,-70.8903 L 48.8215,-70.9952 L 48.6111,-71.1213
 L 48.414,-71.2675 L 48.2322,-71.4322 L 48.0675,-71.614 L 47.9213,-71.8111 L 47.7952,-72.0215 L 47.6903,-72.2433
 L 47.6076,-72.4743 L 47.548,-72.7123 L 47.512,-72.955 L 47.5,-73.2 L 47.512,-73.445 L 47.548,-73.6877
 L 47.6076,-73.9257 L 47.6903,-74.1567 L 47.7952,-74.3785 L 47.9213,-74.5889 L 48.0675,-74.786 L 48.2322,-74.9678
 L 48.414,-75.1325 L 48.6111,-75.2787 L 48.8215,-75.4048 L 49.0433,-75.5097 L 49.2743,-75.5923 L 49.5123,-75.652
 L 49.7549,-75.688 L 50,-75.7 L 50.245,-75.688 L 50.4877,-75.652 L 50.7257,-75.5923 L 50.9567,-75.5097
 L 51.1785,-75.4048 L 51.3889,-75.2787 L 51.586,-75.1325 L 51.7678,-74.9678 L 51.9325,-74.786 L 52.0787,-74.5889
 L 52.2048,-74.3785 L 52.3097,-74.1567 L 52.3923,-73.9257 L 52.452,-73.6877 L 52.488,-73.445 L 52.5,-73.2
 L 52.488,-72.955 L 52.452,-72.7123 L 52.3923,-72.4743 L 52.3097,-72.2433 L 52.2048,-72.0215 L 52.0787,-71.8111
 L 51.9325,-71.614 L 51.7678,-71.4322 L 51.586,-71.2675 L 51.3889,-71.1213 L 51.1785,-70.9952 L 50.9567,-70.8903
 L 50.7257,-70.8076 L 50.4877,-70.748 L 50.245,-70.712 L 50,-70.7 z
M -50.245,-70.712 L -50.4877,-70.748 L -50.7257,-70.8076 L -50.9567,-70.8903 L -51.1785,-70.9952 L -51.3889,-71.1213
 L -51.586,-71.2675 L -51.7678,-71.4322 L -51.9325,-71.614 L -52.0787,-71.8111 L -52.2048,-72.0215 L -52.3097,-72.2433
 L -52.3923,-72.4743 L -52.452,-72.7123 L -52.488,-72.955 L -52.5,-73.2 L -52.488,-73.445 L -52.452,-73.6877
 L -52.3923,-73.9257 L -52.3097,-74.1567 L -52.2048,-74.3785 L -52.0787,-74.5889 L -51.9325,-74.786 L -51.7678,-74.9678
 L -51.586,-75.1325 L -51.3889,-75.2787 L -51.1785,-75.4048 L -50.9567,-75.5097 L -50.7257,-75.5923 L -50.4877,-75.652
 L -50.245,-75.688 L -50,-75.7 L -49.7549,-75.688 L -49.5123,-75.652 L -49.2743,-75.5923 L -49.0433,-75.5097
 L -48.8215,-75.4048 L -48.6111,-75.2787 L -48.414,-75.1325 L -48.2322,-74.9678 L -48.0675,-74.786 L -47.9213,-74.5889
 L -47.7952,-74.3785 L -47.6903,-74.1567 L -47.6076,-73.9257 L -47.548,-73.6877 L -47.512,-73.445 L -47.5,-73.2
 L -47.512,-72.955 L -47.548,-72.7123 L -47.6076,-72.4743 L -47.6903,-72.2433 L -47.7952,-72.0215 L -47.9213,-71.8111
 L -48.0675,-71.614 L -48.2322,-71.4322 L -48.414,-71.2675 L -48.6111,-71.1213 L -48.8215,-70.9952 L -49.0433,-70.8903
 L -49.2743,-70.8076 L -49.5123,-70.748 L -49.7549,-70.712 L -50,-70.7 z
M 49.6471,-9.91733 L 49.2977,-9.96916 L 48.955,-10.055 L 48.6223,-10.174 L 48.303,-10.3251 L 47.9999,-10.5067
 L 47.7162,-10.7171 L 47.4544,-10.9544 L 47.2171,-11.2162 L 47.0067,-11.4999 L 46.8251,-11.803 L 46.674,-12.1223
 L 46.555,-12.455 L 46.4692,-12.7977 L 46.4173,-13.1471 L 46.4,-13.5 L 46.4173,-13.8529 L 46.4692,-14.2023
 L 46.555,-14.545 L 46.674,-14.8777 L 46.8251,-15.197 L 47.0067,-15.5 L 47.2171,-15.7838 L 47.4544,-16.0456
 L 47.7162,-16.2828 L 47.9999,-16.4933 L 48.303,-16.6749 L 48.6223,-16.826 L 48.955,-16.945 L 49.2977,-17.0308
 L 49.6471,-17.0827 L 50,-17.1 L 50.3529,-17.0827 L 50.7023,-17.0308 L 51.045,-16.945 L 51.3777,-16.826
 L 51.697,-16.6749 L 52,-16.4933 L 52.2838,-16.2828 L 52.5456,-16.0456 L 52.7828,-15.7838 L 52.9933,-15.5
 L 53.1749,-15.197 L 53.326,-14.8777 L 53.445,-14.545 L 53.5308,-14.2023 L 53.5827,-13.8529 L 53.6,-13.5
 L 53.5827,-13.1471 L 53.5308,-12.7977 L 53.445,-12.455 L 53.326,-12.1223 L 53.1749,-11.803 L 52.9933,-11.4999
 L 52.7828,-11.2162 L 52.5456,-10.9544 L 52.2838,-10.7171 L 52,-10.5067 L 51.697,-10.3251 L 51.3777,-10.174
 L 51.045,-10.055 L 50.7023,-9.96916 L 50.3529,-9.91733 L 50,-9.89999 z
M -50.3529,-9.91733 L -50.7023,-9.96916 L -51.045,-10.055 L -51.3777,-10.174 L -51.697,-10.3251 L -52,-10.5067
 L -52.2838,-10.7171 L -52.5456,-10.9544 L -52.7828,-11.2162 L -52.9933,-11.4999 L -53.1749,-11.803 L -53.326,-12.1223
 L -53.445,-12.455 L -53.5308,-12.7977 L -53.5827,-13.1471 L -53.6,-13.5 L -53.5827,-13.8529 L -53.5308,-14.2023
 L -53.445,-14.545 L -53.326,-14.8777 L -53.1749,-15.197 L -52.9933,-15.5 L -52.7828,-15.7838 L -52.5456,-16.0456
 L -52.2838,-16.2828 L -52,-16.4933 L -51.697,-16.6749 L -51.3777,-16.826 L -51.045,-16.945 L -50.7023,-17.0308
 L -50.3529,-17.0827 L -50,-17.1 L -49.6471,-17.0827 L -49.2977,-17.0308 L -48.955,-16.945 L -48.6223,-16.826
 L -48.303,-16.6749 L -47.9999,-16.4933 L -47.7162,-16.2828 L -47.4544,-16.0456 L -47.2171,-15.7838 L -47.0067,-15.5
 L -46.8251,-15.197 L -46.674,-14.8777 L -46.555,-14.545 L -46.4692,-14.2023 L -46.4173,-13.8529 L -46.4,-13.5
 L -46.4173,-13.1471 L -46.4692,-12.7977 L -46.555,-12.455 L -46.674,-12.1223 L -46.8251,-11.803 L -47.0067,-11.4999
 L -47.2171,-11.2162 L -47.4544,-10.9544 L -47.7162,-10.7171 L -47.9999,-10.5067 L -48.303,-10.3251 L -48.6223,-10.174
 L -48.955,-10.055 L -49.2977,-9.96916 L -49.6471,-9.91733 L -50,-9.89999 z
M -27.4184,99.935 L -26.108,99.7406 L -24.8228,99.4187 L -23.5754,98.9724 L -22.3778,98.4059 L -21.2415,97.7248
 L -20.1774,96.9356 L -19.0173,95.8642 L -10.2299,86.7387 L -10.0009,86.5232 L -9.60497,86.5 L 9.66873,86.5
 L 9.98264,86.5154 L 10.2741,86.7846 L 19.0173,95.8642 L 19.982,96.7722 L 21.0311,97.5814 L 22.1543,98.2838
 L 23.3411,98.8727 L 24.5798,99.3425 L 25.8586,99.6886 L 27.1652,99.9076 L 28.7417,100 L 50,100
 L 51.3232,99.935 L 52.6337,99.7406 L 53.9188,99.4187 L 55.1662,98.9724 L 56.3639,98.4059 L 57.5002,97.7248
 L 58.5643,96.9356 L 59.5459,96.0459 L 60.4356,95.0643 L 61.2248,94.0002 L 61.9059,92.8639 L 62.4724,91.6662
 L 62.9187,90.4188 L 63.2406,89.1337 L 63.435,87.8232 L 63.5,86.5 L 63.5,85.3419 L 63.435,84.0187
 L 63.2406,82.7082 L 62.9187,81.423 L 62.4724,80.1757 L 61.9059,78.978 L 61.2248,77.8417 L 60.4356,76.7776
 L 59.5459,75.7959 L 50.2344,66.4844 L 50.0148,66.2421 L 49.9818,66.1105 L 49.9734,66.0609 L 47.3461,47.3781
 L 47.3184,47.0732 L 47.643,46.7642 L 57.5536,38.5053 L 58.5286,37.6082 L 59.4109,36.6199 L 60.192,35.5499
 L 60.8646,34.4085 L 61.422,33.2066 L 61.8589,31.9559 L 62.1712,30.6684 L 62.3557,29.3565 L 62.4108,28.0328
 L 62.3358,26.7101 L 62.2275,25.9149 L 62.0051,24.5806 L 61.7234,23.2861 L 61.3163,22.0254 L 60.7874,20.8107
 L 60.1421,19.6536 L 59.3865,18.5654 L 58.5279,17.5565 L 57.5745,16.6366 L 56.5355,15.8146 L 55.421,15.0984
 L 54.2416,14.4949 L 53.0087,14.0098 L 51.7343,13.648 L 50.4305,13.4128 L 48.6888,13.3 L 28.7417,13.3
 L 27.4184,13.365 L 26.108,13.5594 L 24.8228,13.8813 L 23.5754,14.3276 L 22.3778,14.8941 L 21.2415,15.5752
 L 20.1774,16.3644 L 19.0173,17.4358 L 10.2299,26.5613 L 10.0009,26.7768 L 9.60497,26.8 L -9.66873,26.8
 L -9.98264,26.7846 L -10.2741,26.5154 L -19.0173,17.4358 L -19.982,16.5278 L -21.0311,15.7186 L -22.1543,15.0162
 L -23.3411,14.4273 L -24.5798,13.9575 L -25.8586,13.6114 L -27.1652,13.3924 L -28.7417,13.3 L -48.6888,13.3
 L -50.012,13.365 L -51.3225,13.5594 L -52.6076,13.8813 L -53.855,14.3276 L -55.0526,14.8941 L -56.189,15.5752
 L -57.2531,16.3644 L -58.2347,17.2541 L -59.1244,18.2357 L -59.9136,19.2998 L -60.5947,20.4361 L -61.1611,21.6338
 L -61.6075,22.8812 L -62.0051,24.5806 L -62.2275,25.9149 L -62.3809,27.2308 L -62.4046,28.5554 L -62.2983,29.876
 L -62.0632,31.1798 L -61.7013,32.4542 L -61.2163,33.6871 L -60.6128,34.8665 L -59.8966,35.981 L -59.0746,37.02
 L -58.1547,37.9734 L -57.5536,38.5053 L -47.5545,46.8379 L -47.3292,47.0452 L -47.3621,47.4919 L -49.9539,65.9218
 L -50.0152,66.243 L -50.1004,66.3484 L -50.1349,66.3849 L -59.5459,75.7959 L -60.4356,76.7776 L -61.2248,77.8417
 L -61.9059,78.978 L -62.4724,80.1757 L -62.9187,81.423 L -63.2406,82.7082 L -63.435,84.0187 L -63.5,85.3419
 L -63.5,86.5 L -63.435,87.8232 L -63.2406,89.1337 L -62.9187,90.4188 L -62.4724,91.6662 L -61.9059,92.8639
 L -61.2248,94.0002 L -60.4356,95.0643 L -59.5459,96.0459 L -58.5643,96.9356 L -57.5002,97.7248 L -56.3639,98.4059
 L -55.1662,98.9724 L -53.9188,99.4187 L -52.6337,99.7406 L -51.3232,99.935 L -50,100 L -28.7417,100
 z
M 29.4971,29.9127 L 29.1477,29.8608 L 28.805,29.775 L 28.4723,29.656 L 28.153,29.5049 L 27.8499,29.3233
 L 27.5662,29.1129 L 27.3044,28.8756 L 27.0672,28.6138 L 26.8567,28.3301 L 26.6751,28.027 L 26.524,27.7077
 L 26.405,27.375 L 26.3192,27.0323 L 26.2673,26.6829 L 26.25,26.33 L 26.2673,25.9772 L 26.3192,25.6277
 L 26.405,25.285 L 26.524,24.9524 L 26.6751,24.633 L 26.8567,24.33 L 27.0672,24.0462 L 27.3044,23.7844
 L 27.5662,23.5472 L 27.8499,23.3367 L 28.153,23.1551 L 28.4723,23.004 L 28.805,22.885 L 29.1477,22.7992
 L 29.4971,22.7473 L 29.85,22.73 L 30.2029,22.7473 L 30.5523,22.7992 L 30.895,22.885 L 31.2276,23.004
 L 31.547,23.1551 L 31.8501,23.3367 L 32.1338,23.5472 L 32.3956,23.7844 L 32.6328,24.0462 L 32.8433,24.33
 L 33.0249,24.633 L 33.176,24.9524 L 33.295,25.285 L 33.3808,25.6277 L 33.4327,25.9772 L 33.45,26.33
 L 33.4327,26.6829 L 33.3808,27.0323 L 33.295,27.375 L 33.176,27.7077 L 33.0249,28.027 L 32.8433,28.3301
 L 32.6328,28.6138 L 32.3956,28.8756 L 32.1338,29.1129 L 31.8501,29.3233 L 31.547,29.5049 L 31.2276,29.656
 L 30.895,29.775 L 30.5523,29.8608 L 30.2029,29.9127 L 29.85,29.93 z
M -30.095,28.818 L -30.3377,28.782 L -30.5757,28.7224 L -30.8067,28.6397 L -31.0285,28.5348 L -31.2389,28.4087
 L -31.436,28.2625 L -31.6178,28.0978 L -31.7825,27.916 L -31.9287,27.7189 L -32.0548,27.5085 L -32.1597,27.2867
 L -32.2423,27.0557 L -32.302,26.8177 L -32.338,26.5751 L -32.35,26.33 L -32.338,26.085 L -32.302,25.8423
 L -32.2423,25.6043 L -32.1597,25.3733 L -32.0548,25.1515 L -31.9287,24.9411 L -31.7825,24.744 L -31.6178,24.5623
 L -31.436,24.3975 L -31.2389,24.2513 L -31.0285,24.1252 L -30.8067,24.0203 L -30.5757,23.9377 L -30.3377,23.8781
 L -30.095,23.8421 L -29.85,23.83 L -29.6049,23.8421 L -29.3623,23.8781 L -29.1243,23.9377 L -28.8933,24.0203
 L -28.6715,24.1252 L -28.4611,24.2513 L -28.264,24.3975 L -28.0822,24.5623 L -27.9175,24.744 L -27.7713,24.9411
 L -27.6452,25.1515 L -27.5403,25.3733 L -27.4576,25.6043 L -27.398,25.8423 L -27.362,26.085 L -27.35,26.33
 L -27.362,26.5751 L -27.398,26.8177 L -27.4576,27.0557 L -27.5403,27.2867 L -27.6452,27.5085 L -27.7713,27.7189
 L -27.9175,27.916 L -28.0822,28.0978 L -28.264,28.2625 L -28.4611,28.4087 L -28.6715,28.5348 L -28.8933,28.6397
 L -29.1243,28.7224 L -29.3623,28.782 L -29.6049,28.818 L -29.85,28.83 z
M 49.7549,29.288 L 49.5123,29.252 L 49.2743,29.1924 L 49.0433,29.1097 L 48.8215,29.0048 L 48.6111,28.8787
 L 48.414,28.7325 L 48.2322,28.5678 L 48.0675,28.386 L 47.9213,28.1889 L 47.7952,27.9785 L 47.6903,27.7567
 L 47.6076,27.5257 L 47.548,27.2877 L 47.512,27.045 L 47.5,26.8 L 47.512,26.555 L 47.548,26.3123
 L 47.6076,26.0743 L 47.6903,25.8433 L 47.7952,25.6215 L 47.9213,25.4111 L 48.0675,25.214 L 48.2322,25.0322
 L 48.414,24.8675 L 48.6111,24.7213 L 48.8215,24.5952 L 49.0433,24.4903 L 49.2743,24.4077 L 49.5123,24.348
 L 49.7549,24.312 L 50,24.3 L 50.245,24.312 L 50.4877,24.348 L 50.7257,24.4077 L 50.9567,24.4903
 L 51.1785,24.5952 L 51.3889,24.7213 L 51.586,24.8675 L 51.7678,25.0322 L 51.9325,25.214 L 52.0787,25.4111
 L 52.2048,25.6215 L 52.3097,25.8433 L 52.3923,26.0743 L 52.452,26.3123 L 52.488,26.555 L 52.5,26.8
 L 52.488,27.045 L 52.452,27.2877 L 52.3923,27.5257 L 52.3097,27.7567 L 52.2048,27.9785 L 52.0787,28.1889
 L 51.9325,28.386 L 51.7678,28.5678 L 51.586,28.7325 L 51.3889,28.8787 L 51.1785,29.0048 L 50.9567,29.1097
 L 50.7257,29.1924 L 50.4877,29.252 L 50.245,29.288 L 50,29.3 z
M -50.245,29.288 L -50.4877,29.252 L -50.7257,29.1924 L -50.9567,29.1097 L -51.1785,29.0048 L -51.3889,28.8787
 L -51.586,28.7325 L -51.7678,28.5678 L -51.9325,28.386 L -52.0787,28.1889 L -52.2048,27.9785 L -52.3097,27.7567
 L -52.3923,27.5257 L -52.452,27.2877 L -52.488,27.045 L -52.5,26.8 L -52.488,26.555 L -52.452,26.3123
 L -52.3923,26.0743 L -52.3097,25.8433 L -52.2048,25.6215 L -52.0787,25.4111 L -51.9325,25.214 L -51.7678,25.0322
 L -51.586,24.8675 L -51.3889,24.7213 L -51.1785,24.5952 L -50.9567,24.4903 L -50.7257,24.4077 L -50.4877,24.348
 L -50.245,24.312 L -50,24.3 L -49.7549,24.312 L -49.5123,24.348 L -49.2743,24.4077 L -49.0433,24.4903
 L -48.8215,24.5952 L -48.6111,24.7213 L -48.414,24.8675 L -48.2322,25.0322 L -48.0675,25.214 L -47.9213,25.4111
 L -47.7952,25.6215 L -47.6903,25.8433 L -47.6076,26.0743 L -47.548,26.3123 L -47.512,26.555 L -47.5,26.8
 L -47.512,27.045 L -47.548,27.2877 L -47.6076,27.5257 L -47.6903,27.7567 L -47.7952,27.9785 L -47.9213,28.1889
 L -48.0675,28.386 L -48.2322,28.5678 L -48.414,28.7325 L -48.6111,28.8787 L -48.8215,29.0048 L -49.0433,29.1097
 L -49.2743,29.1924 L -49.5123,29.252 L -49.7549,29.288 L -50,29.3 z
M 9.75494,59.138 L 9.51227,59.102 L 9.27428,59.0424 L 9.04329,58.9597 L 8.8215,58.8548 L 8.61107,58.7287
 L 8.41402,58.5825 L 8.23222,58.4178 L 8.06746,58.236 L 7.92133,58.0389 L 7.7952,57.8285 L 7.69029,57.6067
 L 7.60764,57.3757 L 7.54803,57.1377 L 7.51202,56.8951 L 7.5,56.65 L 7.51202,56.405 L 7.54803,56.1623
 L 7.60764,55.9243 L 7.69029,55.6933 L 7.7952,55.4715 L 7.92133,55.2611 L 8.06746,55.064 L 8.23222,54.8822
 L 8.41402,54.7175 L 8.61107,54.5713 L 8.8215,54.4452 L 9.04329,54.3403 L 9.27428,54.2577 L 9.51227,54.198
 L 9.75494,54.162 L 10,54.15 L 10.245,54.162 L 10.4877,54.198 L 10.7257,54.2577 L 10.9567,54.3403
 L 11.1785,54.4452 L 11.3889,54.5713 L 11.586,54.7175 L 11.7678,54.8822 L 11.9325,55.064 L 12.0787,55.2611
 L 12.2048,55.4715 L 12.3097,55.6933 L 12.3923,55.9243 L 12.452,56.1623 L 12.488,56.405 L 12.5,56.65
 L 12.488,56.8951 L 12.452,57.1377 L 12.3923,57.3757 L 12.3097,57.6067 L 12.2048,57.8285 L 12.0787,58.0389
 L 11.9325,58.236 L 11.7678,58.4178 L 11.586,58.5825 L 11.3889,58.7287 L 11.1785,58.8548 L 10.9567,58.9597
 L 10.7257,59.0424 L 10.4877,59.102 L 10.245,59.138 L 10,59.15 z
M -10.245,59.138 L -10.4877,59.102 L -10.7257,59.0424 L -10.9567,58.9597 L -11.1785,58.8548 L -11.3889,58.7287
 L -11.586,58.5825 L -11.7678,58.4178 L -11.9325,58.236 L -12.0787,58.0389 L -12.2048,57.8285 L -12.3097,57.6067
 L -12.3923,57.3757 L -12.452,57.1377 L -12.488,56.8951 L -12.5,56.65 L -12.488,56.405 L -12.452,56.1623
 L -12.3923,55.9243 L -12.3097,55.6933 L -12.2048,55.4715 L -12.0787,55.2611 L -11.9325,55.064 L -11.7678,54.8822
 L -11.586,54.7175 L -11.3889,54.5713 L -11.1785,54.4452 L -10.9567,54.3403 L -10.7257,54.2577 L -10.4877,54.198
 L -10.245,54.162 L -10,54.15 L -9.75494,54.162 L -9.51227,54.198 L -9.27428,54.2577 L -9.04329,54.3403
 L -8.8215,54.4452 L -8.61107,54.5713 L -8.41402,54.7175 L -8.23222,54.8822 L -8.06746,55.064 L -7.92133,55.2611
 L -7.7952,55.4715 L -7.69029,55.6933 L -7.60764,55.9243 L -7.54803,56.1623 L -7.51202,56.405 L -7.5,56.65
 L -7.51202,56.8951 L -7.54803,57.1377 L -7.60764,57.3757 L -7.69029,57.6067 L -7.7952,57.8285 L -7.92133,58.0389
 L -8.06746,58.236 L -8.23222,58.4178 L -8.41402,58.5825 L -8.61107,58.7287 L -8.8215,58.8548 L -9.04329,58.9597
 L -9.27428,59.0424 L -9.51227,59.102 L -9.75494,59.138 L -10,59.15 z
M 49.6471,90.0827 L 49.2977,90.0308 L 48.955,89.945 L 48.6223,89.826 L 48.303,89.6749 L 47.9999,89.4933
 L 47.7162,89.2829 L 47.4544,89.0456 L 47.2171,88.7838 L 47.0067,88.5001 L 46.8251,88.197 L 46.674,87.8777
 L 46.555,87.545 L 46.4692,87.2023 L 46.4173,86.8529 L 46.4,86.5 L 46.4173,86.1471 L 46.4692,85.7977
 L 46.555,85.455 L 46.674,85.1223 L 46.8251,84.803 L 47.0067,84.5 L 47.2171,84.2162 L 47.4544,83.9544
 L 47.7162,83.7172 L 47.9999,83.5067 L 48.303,83.3251 L 48.6223,83.174 L 48.955,83.055 L 49.2977,82.9692
 L 49.6471,82.9173 L 50,82.9 L 50.3529,82.9173 L 50.7023,82.9692 L 51.045,83.055 L 51.3777,83.174
 L 51.697,83.3251 L 52,83.5067 L 52.2838,83.7172 L 52.5456,83.9544 L 52.7828,84.2162 L 52.9933,84.5
 L 53.1749,84.803 L 53.326,85.1223 L 53.445,85.455 L 53.5308,85.7977 L 53.5827,86.1471 L 53.6,86.5
 L 53.5827,86.8529 L 53.5308,87.2023 L 53.445,87.545 L 53.326,87.8777 L 53.1749,88.197 L 52.9933,88.5001
 L 52.7828,88.7838 L 52.5456,89.0456 L 52.2838,89.2829 L 52,89.4933 L 51.697,89.6749 L 51.3777,89.826
 L 51.045,89.945 L 50.7023,90.0308 L 50.3529,90.0827 L 50,90.1 z
M -50.3529,90.0827 L -50.7023,90.0308 L -51.045,89.945 L -51.3777,89.826 L -51.697,89.6749 L -52,89.4933
 L -52.2838,89.2829 L -52.5456,89.0456 L -52.7828,88.7838 L -52.9933,88.5001 L -53.1749,88.197 L -53.326,87.8777
 L -53.445,87.545 L -53.5308,87.2023 L -53.5827,86.8529 L -53.6,86.5 L -53.5827,86.1471 L -53.5308,85.7977
 L -53.445,85.455 L -53.326,85.1223 L -53.1749,84.803 L -52.9933,84.5 L -52.7828,84.2162 L -52.5456,83.9544
 L -52.2838,83.7172 L -52,83.5067 L -51.697,83.3251 L -51.3777,83.174 L -51.045,83.055 L -50.7023,82.9692
 L -50.3529,82.9173 L -50,82.9 L -49.6471,82.9173 L -49.2977,82.9692 L -48.955,83.055 L -48.6223,83.174
 L -48.303,83.3251 L -47.9999,83.5067 L -47.7162,83.7172 L -47.4544,83.9544 L -47.2171,84.2162 L -47.0067,84.5
 L -46.8251,84.803 L -46.674,85.1223 L -46.555,85.455 L -46.4692,85.7977 L -46.4173,86.1471 L -46.4,86.5
 L -46.4173,86.8529 L -46.4692,87.2023 L -46.555,87.545 L -46.674,87.8777 L -46.8251,88.197 L -47.0067,88.5001
 L -47.2171,88.7838 L -47.4544,89.0456 L -47.7162,89.2829 L -47.9999,89.4933 L -48.303,89.6749 L -48.6223,89.826
 L -48.955,89.945 L -49.2977,90.0308 L -49.6471,90.0827 L -50,90.1 z
M 29.4971,90.5527 L 29.1477,90.5008 L 28.805,90.415 L 28.4723,90.296 L 28.153,90.1449 L 27.8499,89.9633
 L 27.5662,89.7528 L 27.3044,89.5156 L 27.0672,89.2538 L 26.8567,88.97 L 26.6751,88.667 L 26.524,88.3477
 L 26.405,88.015 L 26.3192,87.6723 L 26.2673,87.3229 L 26.25,86.97 L 26.2673,86.6171 L 26.3192,86.2677
 L 26.405,85.925 L 26.524,85.5923 L 26.6751,85.273 L 26.8567,84.97 L 27.0672,84.6862 L 27.3044,84.4244
 L 27.5662,84.1872 L 27.8499,83.9767 L 28.153,83.7951 L 28.4723,83.644 L 28.805,83.525 L 29.1477,83.4392
 L 29.4971,83.3873 L 29.85,83.37 L 30.2029,83.3873 L 30.5523,83.4392 L 30.895,83.525 L 31.2276,83.644
 L 31.547,83.7951 L 31.8501,83.9767 L 32.1338,84.1872 L 32.3956,84.4244 L 32.6328,84.6862 L 32.8433,84.97
 L 33.0249,85.273 L 33.176,85.5923 L 33.295,85.925 L 33.3808,86.2677 L 33.4327,86.6171 L 33.45,86.97
 L 33.4327,87.3229 L 33.3808,87.6723 L 33.295,88.015 L 33.176,88.3477 L 33.0249,88.667 L 32.8433,88.97
 L 32.6328,89.2538 L 32.3956,89.5156 L 32.1338,89.7528 L 31.8501,89.9633 L 31.547,90.1449 L 31.2276,90.296
 L 30.895,90.415 L 30.5523,90.5008 L 30.2029,90.5527 L 29.85,90.57 z
M -30.095,89.458 L -30.3377,89.422 L -30.5757,89.3624 L -30.8067,89.2797 L -31.0285,89.1748 L -31.2389,89.0487
 L -31.436,88.9025 L -31.6178,88.7378 L -31.7825,88.556 L -31.9287,88.3589 L -32.0548,88.1485 L -32.1597,87.9267
 L -32.2423,87.6957 L -32.302,87.4577 L -32.338,87.215 L -32.35,86.97 L -32.338,86.725 L -32.302,86.4823
 L -32.2423,86.2443 L -32.1597,86.0133 L -32.0548,85.7915 L -31.9287,85.5811 L -31.7825,85.384 L -31.6178,85.2022
 L -31.436,85.0375 L -31.2389,84.8913 L -31.0285,84.7652 L -30.8067,84.6603 L -30.5757,84.5777 L -30.3377,84.518
 L -30.095,84.482 L -29.85,84.47 L -29.6049,84.482 L -29.3623,84.518 L -29.1243,84.5777 L -28.8933,84.6603
 L -28.6715,84.7652 L -28.4611,84.8913 L -28.264,85.0375 L -28.0822,85.2022 L -27.9175,85.384 L -27.7713,85.5811
 L -27.6452,85.7915 L -27.5403,86.0133 L -27.4576,86.2443 L -27.398,86.4823 L -27.362,86.725 L -27.35,86.97
 L -27.362,87.215 L -27.398,87.4577 L -27.4576,87.6957 L -27.5403,87.9267 L -27.6452,88.1485 L -27.7713,88.3589
 L -27.9175,88.556 L -28.0822,88.7378 L -28.264,88.9025 L -28.4611,89.0487 L -28.6715,89.1748 L -28.8933,89.2797
 L -29.1243,89.3624 L -29.3623,89.422 L -29.6049,89.458 L -29.85,89.47 z
" stroke="black" fill="lightgray" stroke-width="0.5"/></svg>
